<?xml version="1.0" encoding="UTF-8"?> <svg xmlns="http://www.w3.org/2000/svg" width="1800" height="680" viewBox="0 0 1800 680" fill="none"><g clip-path="url(#clip0_310_9127)"><rect width="1800" height="680" fill="white"></rect><path d="M0 -136H1800V598.504C1077 499.5 676 779.579 0 598.504L0 -136Z" fill="#101820"></path><path fill-rule="evenodd" clip-rule="evenodd" d="M145.779 631.464C122.976 627.271 99.8779 622.569 76.4588 617.319C77.5808 615.511 78.8606 613.79 80.2905 612.177C86.7594 604.881 95.798 600.375 105.513 599.602C97.9764 599.088 90.7215 596.533 84.5235 592.211C78.3255 587.889 73.4174 581.963 70.3239 575.065C67.2304 568.167 66.0679 560.557 66.9607 553.048C67.8534 545.54 70.7678 538.416 75.3923 532.438C80.0168 526.459 86.1776 521.851 93.2158 519.106C100.254 516.361 107.905 515.583 115.351 516.854C122.798 518.124 129.759 521.397 135.491 526.322C141.222 531.246 145.509 537.638 147.893 544.812C150.646 536.485 155.952 529.238 163.055 524.101C170.158 518.965 178.698 516.2 187.461 516.2C196.223 516.2 204.763 518.965 211.867 524.101C218.97 529.238 224.275 536.485 227.028 544.812C229.781 536.485 235.086 529.238 242.189 524.101C249.292 518.965 257.832 516.2 266.595 516.2C275.358 516.2 283.898 518.965 291.001 524.101C298.104 529.238 303.409 536.485 306.162 544.812C308.915 536.485 314.22 529.238 321.324 524.101C328.427 518.965 336.967 516.2 345.729 516.2C354.492 516.2 363.032 518.965 370.135 524.101C377.239 529.238 382.544 536.485 385.297 544.812C388.05 536.485 393.355 529.238 400.458 524.101C407.561 518.965 416.101 516.2 424.864 516.2C433.627 516.2 442.167 518.965 449.27 524.101C456.373 529.238 461.678 536.485 464.431 544.812C467.184 536.485 472.489 529.238 479.592 524.101C486.696 518.965 495.236 516.2 503.998 516.2C512.761 516.2 521.301 518.965 528.404 524.101C535.507 529.238 540.812 536.485 543.565 544.812C546.319 536.485 551.624 529.238 558.727 524.101C565.83 518.965 574.37 516.2 583.133 516.2C591.896 516.2 600.435 518.965 607.539 524.101C614.642 529.238 619.947 536.485 622.7 544.812C625.453 536.485 630.758 529.238 637.861 524.101C644.964 518.965 653.504 516.2 662.267 516.2C671.03 516.2 679.57 518.965 686.673 524.101C693.776 529.238 699.081 536.485 701.834 544.812C704.587 536.485 709.893 529.238 716.996 524.101C724.099 518.965 732.639 516.2 741.402 516.2C750.164 516.2 758.704 518.965 765.807 524.101C772.911 529.238 778.216 536.485 780.969 544.812C783.722 536.485 789.027 529.238 796.13 524.101C803.233 518.965 811.773 516.2 820.536 516.2C829.299 516.2 837.839 518.965 844.942 524.101C852.045 529.238 857.35 536.485 860.103 544.812C862.856 536.485 868.161 529.238 875.265 524.101C882.368 518.965 890.908 516.2 899.67 516.2C908.433 516.2 916.973 518.965 924.076 524.101C931.18 529.238 936.485 536.485 939.238 544.812C941.991 536.485 947.296 529.238 954.399 524.101C961.502 518.965 970.042 516.2 978.805 516.2C987.568 516.2 996.108 518.965 1003.21 524.101C1010.31 529.238 1015.62 536.485 1018.37 544.812C1021.13 536.485 1026.43 529.238 1033.53 524.101C1040.64 518.965 1049.18 516.2 1057.94 516.2C1066.7 516.2 1075.24 518.965 1082.35 524.101C1089.45 529.238 1094.75 536.485 1097.51 544.812C1100.26 536.485 1105.56 529.238 1112.67 524.101C1119.77 518.965 1128.31 516.2 1137.07 516.2C1145.84 516.2 1154.38 518.965 1161.48 524.101C1168.58 529.238 1173.89 536.485 1176.64 544.812C1179.39 536.485 1184.7 529.238 1191.8 524.101C1198.91 518.965 1207.45 516.2 1216.21 516.2C1224.97 516.2 1233.51 518.965 1240.61 524.101C1247.72 529.238 1253.02 536.485 1255.78 544.812C1258.53 536.485 1263.83 529.238 1270.94 524.101C1278.04 518.965 1286.58 516.2 1295.34 516.2C1304.11 516.2 1312.65 518.965 1319.75 524.101C1326.85 529.238 1332.16 536.485 1334.91 544.812C1337.66 536.485 1342.97 529.238 1350.07 524.101C1357.17 518.965 1365.71 516.2 1374.48 516.2C1383.24 516.2 1391.78 518.965 1398.88 524.101C1405.99 529.238 1411.29 536.485 1414.04 544.812C1416.8 536.485 1422.1 529.238 1429.21 524.101C1436.31 518.965 1444.85 516.2 1453.61 516.2C1462.37 516.2 1470.91 518.965 1478.02 524.101C1485.12 529.238 1490.43 536.485 1493.18 544.812C1495.93 536.485 1501.24 529.238 1508.34 524.101C1515.44 518.965 1523.98 516.2 1532.75 516.2C1541.51 516.2 1550.05 518.965 1557.15 524.101C1564.26 529.238 1569.56 536.485 1572.31 544.812C1575.07 536.485 1580.37 529.238 1587.47 524.101C1594.58 518.965 1603.12 516.2 1611.88 516.2C1620.64 516.2 1629.18 518.965 1636.29 524.101C1643.39 529.238 1648.69 536.485 1651.45 544.812C1654.56 535.392 1660.93 527.392 1669.4 522.247C1677.88 517.102 1687.91 515.149 1697.69 516.739C1707.48 518.329 1716.38 523.357 1722.79 530.922C1729.2 538.487 1732.71 548.092 1732.69 558.015C1732.7 568.532 1728.73 578.663 1721.59 586.376C1720.8 587.232 1719.97 588.051 1719.12 588.832C1698.53 586.729 1678.21 584.926 1658.13 583.403C1655.3 579.724 1653.1 575.579 1651.62 571.129C1650.27 575.219 1648.29 579.051 1645.79 582.5C1622.14 580.832 1598.82 579.549 1575.82 578.615C1574.47 576.247 1573.35 573.74 1572.49 571.129C1571.65 573.647 1570.59 576.067 1569.3 578.36C1544.4 577.418 1519.87 576.885 1495.67 576.713C1494.77 574.918 1493.99 573.052 1493.35 571.129C1492.72 573.042 1491.95 574.898 1491.06 576.685C1465.99 576.555 1441.28 576.812 1416.89 577.406C1415.83 575.399 1414.94 573.3 1414.22 571.129C1413.48 573.35 1412.57 575.495 1411.48 577.543C1387.18 578.185 1363.2 579.159 1339.5 580.413C1337.66 577.527 1336.17 574.411 1335.09 571.129C1333.93 574.601 1332.34 577.887 1330.35 580.911C1308.02 582.165 1285.93 583.663 1264.06 585.364C1260.46 581.222 1257.69 576.389 1255.95 571.129C1254.01 576.996 1250.79 582.332 1246.57 586.771C1228.19 588.296 1209.96 589.958 1191.86 591.731C1191.5 591.468 1191.14 591.198 1190.79 590.922C1184.28 585.854 1179.41 578.965 1176.82 571.129C1174.22 578.965 1169.36 585.854 1162.85 590.922C1160.59 592.679 1158.17 594.19 1155.63 595.439C1146.19 596.444 1136.78 597.476 1127.4 598.529C1121.7 597.143 1116.33 594.56 1111.65 590.922C1105.14 585.854 1100.28 578.965 1097.68 571.129C1095.08 578.965 1090.22 585.854 1083.71 590.922C1077.2 595.991 1069.33 599.012 1061.1 599.602C1066.68 600.045 1072.03 601.718 1076.8 604.441C1061.81 606.253 1046.88 608.105 1032.01 609.982C1038.27 603.98 1046.43 600.294 1055.13 599.602C1046.9 599.012 1039.03 595.991 1032.52 590.922C1026.01 585.854 1021.15 578.965 1018.55 571.129C1015.95 578.965 1011.09 585.854 1004.58 590.922C998.065 595.991 990.198 599.012 981.97 599.602C991.685 600.375 1000.72 604.881 1007.19 612.177C1007.45 612.463 1007.7 612.753 1007.94 613.046C988.832 615.495 969.805 617.97 950.836 620.438C948.831 620.699 946.827 620.96 944.824 621.221C946.348 617.963 948.343 614.914 950.769 612.177C957.238 604.881 966.277 600.375 975.991 599.602C967.764 599.012 959.896 595.991 953.385 590.922C946.874 585.854 942.011 578.965 939.414 571.129C936.816 578.965 931.953 585.854 925.442 590.922C918.931 595.991 911.063 599.012 902.836 599.602C912.55 600.375 921.589 604.881 928.058 612.177C930.812 615.283 933.009 618.792 934.595 622.551C910.506 625.681 886.498 628.784 862.521 631.789C863.576 624.551 866.718 617.722 871.635 612.177C878.104 604.881 887.142 600.375 896.857 599.602C888.629 599.012 880.762 595.991 874.251 590.922C867.739 585.854 862.877 578.965 860.279 571.129C857.681 578.965 852.819 585.854 846.307 590.922C839.796 595.991 831.929 599.012 823.701 599.602C833.416 600.375 842.455 604.881 848.923 612.177C853.965 617.863 857.14 624.898 858.114 632.34C833.133 635.459 808.184 638.468 783.208 641.287C783.117 640.443 783.055 639.593 783.021 638.739C782.634 628.992 786.031 619.473 792.5 612.177C798.969 604.881 808.008 600.375 817.722 599.602C809.495 599.012 801.628 595.991 795.116 590.922C788.605 585.854 783.743 578.965 781.145 571.129C778.547 578.965 773.684 585.854 767.173 590.922C760.662 595.991 752.794 599.012 744.567 599.602C754.281 600.375 763.32 604.881 769.789 612.177C776.258 619.473 779.655 628.992 779.268 638.739C779.228 639.752 779.148 640.758 779.028 641.758C754.676 644.485 730.296 647.03 705.838 649.317C704.696 645.931 704.03 642.371 703.886 638.739C703.5 628.992 706.897 619.473 713.366 612.177C719.835 604.881 728.873 600.375 738.588 599.602C730.361 599.012 722.493 595.991 715.982 590.922C709.471 585.854 704.608 578.965 702.01 571.129C699.412 578.965 694.55 585.854 688.039 590.922C681.527 595.991 673.66 599.012 665.433 599.602C675.147 600.375 684.186 604.881 690.655 612.177C697.123 619.473 700.521 628.992 700.134 638.739C699.98 642.634 699.226 646.444 697.928 650.047C675.185 652.12 652.369 653.964 629.437 655.521C626.614 650.413 624.987 644.674 624.752 638.739C624.365 628.992 627.763 619.473 634.232 612.177C640.7 604.881 649.739 600.375 659.454 599.602C651.226 599.012 643.359 595.991 636.847 590.922C630.336 585.854 625.474 578.965 622.876 571.129C620.278 578.965 615.415 585.854 608.904 590.922C602.393 595.991 594.525 599.012 586.298 599.602C596.013 600.375 605.051 604.881 611.52 612.177C617.989 619.473 621.386 628.992 621 638.739C620.751 645.021 618.942 651.084 615.807 656.411C594.942 657.719 573.976 658.781 552.877 659.552C548.471 653.531 545.917 646.294 545.618 638.739C545.231 628.992 548.628 619.473 555.097 612.177C561.566 604.881 570.605 600.375 580.319 599.602C572.092 599.012 564.224 595.991 557.713 590.922C551.202 585.854 546.339 578.965 543.741 571.129C541.143 578.965 536.281 585.854 529.77 590.922C523.258 595.991 515.391 599.012 507.164 599.602C516.878 600.375 525.917 604.881 532.386 612.177C538.855 619.473 542.252 628.992 541.865 638.739C541.556 646.549 538.836 654.02 534.153 660.159C514.518 660.712 494.76 661.004 474.856 661C469.769 654.709 466.807 646.909 466.483 638.739C466.097 628.992 469.494 619.473 475.963 612.177C482.431 604.881 491.47 600.375 501.185 599.602C492.957 599.012 485.09 595.991 478.579 590.922C472.067 585.854 467.205 578.965 464.607 571.129C462.009 578.965 457.147 585.854 450.635 590.922C444.124 595.991 436.257 599.012 428.029 599.602C437.744 600.375 446.782 604.881 453.251 612.177C459.72 619.473 463.117 628.992 462.731 638.739C462.409 646.863 459.479 654.62 454.445 660.892C434.606 660.684 414.614 660.174 394.445 659.328C390.14 653.352 387.645 646.2 387.349 638.739C386.962 628.992 390.359 619.473 396.828 612.177C403.297 604.881 412.336 600.375 422.05 599.602C413.823 599.012 405.956 595.991 399.444 590.922C392.933 585.854 388.07 578.965 385.473 571.129C382.875 578.965 378.012 585.854 371.501 590.922C364.99 595.991 357.122 599.012 348.895 599.602C358.609 600.375 367.648 604.881 374.117 612.177C380.586 619.473 383.983 628.992 383.596 638.739C383.314 645.865 381.025 652.71 377.068 658.517C355.63 657.415 333.986 655.925 312.108 654.009C309.772 649.292 308.427 644.095 308.214 638.739C307.828 628.992 311.225 619.473 317.694 612.177C324.163 604.881 333.201 600.375 342.916 599.602C334.688 599.012 326.821 595.991 320.31 590.922C313.798 585.854 308.936 578.965 306.338 571.129C303.74 578.965 298.878 585.854 292.366 590.922C285.855 595.991 277.988 599.012 269.76 599.602C279.475 600.375 288.514 604.881 294.982 612.177C301.451 619.473 304.848 628.992 304.462 638.739C304.265 643.718 303.088 648.559 301.047 653.005C277.591 650.802 253.863 648.104 229.826 644.861C229.413 642.857 229.162 640.81 229.08 638.739C228.693 628.992 232.09 619.473 238.559 612.177C245.028 604.881 254.067 600.375 263.781 599.602C255.554 599.012 247.687 595.991 241.175 590.922C234.664 585.854 229.802 578.965 227.204 571.129C224.606 578.965 219.743 585.854 213.232 590.922C206.721 595.991 198.853 599.012 190.626 599.602C200.34 600.375 209.379 604.881 215.848 612.177C222.317 619.473 225.714 628.992 225.328 638.739C225.255 640.57 225.05 642.383 224.718 644.164C200.226 640.787 175.413 636.843 150.243 632.279C151.225 624.86 154.397 617.847 159.425 612.177C165.894 604.881 174.932 600.375 184.647 599.602C176.42 599.012 168.552 595.991 162.041 590.922C155.53 585.854 150.667 578.965 148.069 571.129C145.471 578.965 140.609 585.854 134.098 590.922C127.586 595.991 119.719 599.012 111.492 599.602C121.206 600.375 130.245 604.881 136.714 612.177C141.557 617.639 144.678 624.347 145.779 631.464ZM1800 558.016C1800 541.513 1786.64 528.135 1770.15 528.135C1753.66 528.135 1740.3 541.513 1740.3 558.016C1740.3 574.519 1753.66 587.897 1770.15 587.897C1786.64 587.897 1800 574.519 1800 558.016ZM0 558.016C0 574.154 13.0696 587.237 29.1918 587.237C45.314 587.237 58.3836 574.154 58.3836 558.016C58.3836 541.877 45.314 528.795 29.1918 528.795C13.0696 528.795 0 541.877 0 558.016ZM980.758 6.44789C980.18 6.83474 979.5 7.04122 978.804 7.04122C977.872 7.04122 976.977 6.6703 976.317 6.01005C975.658 5.34981 975.287 4.45433 975.287 3.52061C975.287 2.8243 975.494 2.14362 975.88 1.56466C976.266 0.985703 976.816 0.534458 977.458 0.267992C978.101 0.00152544 978.808 -0.0681943 979.491 0.067649C980.173 0.203492 980.799 0.538798 981.291 1.03116C981.783 1.52353 982.118 2.15084 982.254 2.83377C982.39 3.5167 982.32 4.22458 982.054 4.86789C981.788 5.51119 981.337 6.06104 980.758 6.44789ZM1059.89 6.44789C1059.31 6.83474 1058.63 7.04122 1057.94 7.04122C1057.01 7.04122 1056.11 6.6703 1055.45 6.01005C1054.79 5.34981 1054.42 4.45433 1054.42 3.52061C1054.42 2.8243 1054.63 2.14362 1055.01 1.56466C1055.4 0.985703 1055.95 0.534458 1056.59 0.267992C1057.24 0.00152544 1057.94 -0.0681943 1058.63 0.067649C1059.31 0.203492 1059.93 0.538798 1060.43 1.03116C1060.92 1.52353 1061.25 2.15084 1061.39 2.83377C1061.52 3.5167 1061.45 4.22458 1061.19 4.86789C1060.92 5.51119 1060.47 6.06104 1059.89 6.44789ZM1137.07 7.04122C1137.77 7.04122 1138.45 6.83474 1139.03 6.44789C1139.61 6.06104 1140.06 5.51119 1140.32 4.86789C1140.59 4.22458 1140.66 3.5167 1140.52 2.83377C1140.39 2.15084 1140.05 1.52353 1139.56 1.03116C1139.07 0.538798 1138.44 0.203492 1137.76 0.067649C1137.08 -0.0681943 1136.37 0.00152544 1135.73 0.267992C1135.08 0.534458 1134.54 0.985703 1134.15 1.56466C1133.76 2.14362 1133.56 2.8243 1133.56 3.52061C1133.56 4.45433 1133.93 5.34981 1134.59 6.01005C1135.25 6.6703 1136.14 7.04122 1137.07 7.04122ZM1218.16 6.44789C1217.58 6.83474 1216.9 7.04122 1216.21 7.04122C1215.27 7.04122 1214.38 6.6703 1213.72 6.01005C1213.06 5.34981 1212.69 4.45433 1212.69 3.52061C1212.69 2.8243 1212.9 2.14362 1213.28 1.56466C1213.67 0.985703 1214.22 0.534458 1214.86 0.267992C1215.5 0.00152544 1216.21 -0.0681943 1216.89 0.067649C1217.58 0.203492 1218.2 0.538798 1218.69 1.03116C1219.19 1.52353 1219.52 2.15084 1219.66 2.83377C1219.79 3.5167 1219.72 4.22458 1219.46 4.86789C1219.19 5.51119 1218.74 6.06104 1218.16 6.44789ZM1295.34 7.04122C1296.04 7.04122 1296.72 6.83474 1297.3 6.44789C1297.87 6.06104 1298.32 5.51119 1298.59 4.86789C1298.86 4.22458 1298.93 3.5167 1298.79 2.83377C1298.66 2.15084 1298.32 1.52353 1297.83 1.03116C1297.34 0.538798 1296.71 0.203492 1296.03 0.067649C1295.35 -0.0681943 1294.64 0.00152544 1294 0.267992C1293.35 0.534458 1292.8 0.985703 1292.42 1.56466C1292.03 2.14362 1291.82 2.8243 1291.82 3.52061C1291.82 4.45433 1292.2 5.34981 1292.85 6.01005C1293.51 6.6703 1294.41 7.04122 1295.34 7.04122ZM1376.43 6.44789C1375.85 6.83474 1375.17 7.04122 1374.48 7.04122C1373.54 7.04122 1372.65 6.6703 1371.99 6.01005C1371.33 5.34981 1370.96 4.45433 1370.96 3.52061C1370.96 2.8243 1371.17 2.14362 1371.55 1.56466C1371.94 0.985703 1372.49 0.534458 1373.13 0.267992C1373.77 0.00152544 1374.48 -0.0681943 1375.16 0.067649C1375.85 0.203492 1376.47 0.538798 1376.96 1.03116C1377.46 1.52353 1377.79 2.15084 1377.93 2.83377C1378.06 3.5167 1377.99 4.22458 1377.73 4.86789C1377.46 5.51119 1377.01 6.06104 1376.43 6.44789ZM1453.61 7.04122C1454.31 7.04122 1454.99 6.83474 1455.56 6.44789C1456.14 6.06104 1456.59 5.51119 1456.86 4.86789C1457.13 4.22458 1457.2 3.5167 1457.06 2.83377C1456.92 2.15084 1456.59 1.52353 1456.1 1.03116C1455.61 0.538798 1454.98 0.203492 1454.3 0.067649C1453.61 -0.0681943 1452.91 0.00152544 1452.26 0.267992C1451.62 0.534458 1451.07 0.985703 1450.69 1.56466C1450.3 2.14362 1450.09 2.8243 1450.09 3.52061C1450.09 4.45433 1450.46 5.34981 1451.12 6.01005C1451.78 6.6703 1452.68 7.04122 1453.61 7.04122ZM1534.7 6.44789C1534.12 6.83474 1533.44 7.04122 1532.75 7.04122C1531.81 7.04122 1530.92 6.6703 1530.26 6.01005C1529.6 5.34981 1529.23 4.45433 1529.23 3.52061C1529.23 2.8243 1529.43 2.14362 1529.82 1.56466C1530.21 0.985703 1530.76 0.534458 1531.4 0.267992C1532.04 0.00152544 1532.75 -0.0681943 1533.43 0.067649C1534.11 0.203492 1534.74 0.538798 1535.23 1.03116C1535.72 1.52353 1536.06 2.15084 1536.2 2.83377C1536.33 3.5167 1536.26 4.22458 1535.99 4.86789C1535.73 5.51119 1535.28 6.06104 1534.7 6.44789ZM1611.88 7.04122C1612.58 7.04122 1613.26 6.83474 1613.83 6.44789C1614.41 6.06104 1614.86 5.51119 1615.13 4.86789C1615.4 4.22458 1615.46 3.5167 1615.33 2.83377C1615.19 2.15084 1614.86 1.52353 1614.37 1.03116C1613.87 0.538798 1613.25 0.203492 1612.57 0.067649C1611.88 -0.0681943 1611.18 0.00152544 1610.53 0.267992C1609.89 0.534458 1609.34 0.985703 1608.96 1.56466C1608.57 2.14362 1608.36 2.8243 1608.36 3.52061C1608.36 4.45433 1608.73 5.34981 1609.39 6.01005C1610.05 6.6703 1610.95 7.04122 1611.88 7.04122ZM1692.97 6.44789C1692.39 6.83474 1691.71 7.04122 1691.01 7.04122C1690.08 7.04122 1689.19 6.6703 1688.53 6.01005C1687.87 5.34981 1687.5 4.45433 1687.5 3.52061C1687.5 2.8243 1687.7 2.14362 1688.09 1.56466C1688.48 0.985703 1689.03 0.534458 1689.67 0.267992C1690.31 0.00152544 1691.02 -0.0681943 1691.7 0.067649C1692.38 0.203492 1693.01 0.538798 1693.5 1.03116C1693.99 1.52353 1694.33 2.15084 1694.46 2.83377C1694.6 3.5167 1694.53 4.22458 1694.26 4.86789C1694 5.51119 1693.55 6.06104 1692.97 6.44789ZM1770.15 5.94087C1770.79 5.94087 1771.4 5.68587 1771.86 5.23195C1772.31 4.77803 1772.57 4.16239 1772.57 3.52046C1772.57 2.87852 1772.31 2.26288 1771.86 1.80896C1771.4 1.35505 1770.79 1.10004 1770.15 1.10004C1769.51 1.10004 1768.89 1.35505 1768.44 1.80896C1767.98 2.26288 1767.73 2.87852 1767.73 3.52046C1767.73 4.16239 1767.98 4.77803 1768.44 5.23195C1768.89 5.68587 1769.51 5.94087 1770.15 5.94087ZM32.8558 88.223C31.7714 88.9483 30.4964 89.3355 29.1921 89.3355C27.4431 89.3355 25.7658 88.64 24.5291 87.4021C23.2923 86.1641 22.5976 84.4851 22.5976 82.7344C22.5976 81.4288 22.9843 80.1525 23.7089 79.067C24.4336 77.9814 25.4635 77.1353 26.6685 76.6357C27.8735 76.1361 29.1994 76.0053 30.4786 76.2601C31.7578 76.5148 32.9329 77.1435 33.8551 78.0667C34.7774 78.9898 35.4055 80.166 35.6599 81.4465C35.9144 82.727 35.7838 84.0543 35.2846 85.2605C34.7855 86.4667 33.9403 87.4977 32.8558 88.223ZM108.326 91.9763C113.425 91.9763 117.559 87.8387 117.559 82.7347C117.559 77.6307 113.425 73.4931 108.326 73.4931C103.228 73.4931 99.0941 77.6307 99.0941 82.7347C99.0941 87.8387 103.228 91.9763 108.326 91.9763ZM196.693 82.7347C196.693 87.8387 192.559 91.9763 187.46 91.9763C182.362 91.9763 178.228 87.8387 178.228 82.7347C178.228 77.6307 182.362 73.4931 187.46 73.4931C192.559 73.4931 196.693 77.6307 196.693 82.7347ZM266.595 91.9763C271.694 91.9763 275.828 87.8387 275.828 82.7347C275.828 77.6307 271.694 73.4931 266.595 73.4931C261.497 73.4931 257.363 77.6307 257.363 82.7347C257.363 87.8387 261.497 91.9763 266.595 91.9763ZM354.962 82.7347C354.962 87.8387 350.828 91.9763 345.73 91.9763C340.631 91.9763 336.497 87.8387 336.497 82.7347C336.497 77.6307 340.631 73.4931 345.73 73.4931C350.828 73.4931 354.962 77.6307 354.962 82.7347ZM110.28 6.44789C109.701 6.83474 109.021 7.04122 108.326 7.04122C107.393 7.04122 106.498 6.6703 105.839 6.01005C105.179 5.34981 104.809 4.45433 104.809 3.52061C104.809 2.8243 105.015 2.14362 105.401 1.56466C105.788 0.985703 106.337 0.534458 106.98 0.267992C107.623 0.00152544 108.33 -0.0681943 109.012 0.067649C109.694 0.203492 110.321 0.538798 110.813 1.03116C111.305 1.52353 111.64 2.15084 111.775 2.83377C111.911 3.5167 111.841 4.22458 111.575 4.86789C111.309 5.51119 110.858 6.06104 110.28 6.44789ZM30.901 5.23195C30.4476 5.68587 29.8325 5.94087 29.1912 5.94087C28.5499 5.94087 27.9349 5.68587 27.4815 5.23195C27.028 4.77803 26.7732 4.16239 26.7732 3.52046C26.7732 2.87852 27.028 2.26288 27.4815 1.80896C27.9349 1.35505 28.5499 1.10004 29.1912 1.10004C29.8325 1.10004 30.4476 1.35505 30.901 1.80896C31.3545 2.26288 31.6092 2.87852 31.6092 3.52046C31.6092 4.16239 31.3545 4.77803 30.901 5.23195ZM187.46 7.04122C188.155 7.04122 188.835 6.83474 189.414 6.44789C189.992 6.06104 190.443 5.51119 190.709 4.86789C190.975 4.22458 191.045 3.5167 190.909 2.83377C190.774 2.15084 190.439 1.52353 189.947 1.03116C189.455 0.538798 188.828 0.203492 188.146 0.067649C187.464 -0.0681943 186.757 0.00152544 186.114 0.267992C185.471 0.534458 184.922 0.985703 184.536 1.56466C184.149 2.14362 183.943 2.8243 183.943 3.52061C183.943 4.45433 184.313 5.34981 184.973 6.01005C185.633 6.6703 186.527 7.04122 187.46 7.04122ZM268.549 6.44789C267.97 6.83474 267.29 7.04122 266.595 7.04122C265.662 7.04122 264.767 6.6703 264.108 6.01005C263.448 5.34981 263.078 4.45433 263.078 3.52061C263.078 2.8243 263.284 2.14362 263.671 1.56466C264.057 0.985703 264.606 0.534458 265.249 0.267992C265.892 0.00152544 266.599 -0.0681943 267.281 0.067649C267.963 0.203492 268.59 0.538798 269.082 1.03116C269.574 1.52353 269.909 2.15084 270.044 2.83377C270.18 3.5167 270.11 4.22458 269.844 4.86789C269.578 5.51119 269.127 6.06104 268.549 6.44789ZM345.729 7.04122C346.425 7.04122 347.105 6.83474 347.683 6.44789C348.261 6.06104 348.712 5.51119 348.978 4.86789C349.245 4.22458 349.314 3.5167 349.178 2.83377C349.043 2.15084 348.708 1.52353 348.216 1.03116C347.724 0.538798 347.097 0.203492 346.415 0.067649C345.733 -0.0681943 345.026 0.00152544 344.383 0.267992C343.74 0.534458 343.191 0.985703 342.805 1.56466C342.418 2.14362 342.212 2.8243 342.212 3.52061C342.212 4.45433 342.582 5.34981 343.242 6.01005C343.902 6.6703 344.796 7.04122 345.729 7.04122ZM426.817 6.44789C426.239 6.83474 425.559 7.04122 424.863 7.04122C423.93 7.04122 423.036 6.6703 422.376 6.01005C421.717 5.34981 421.346 4.45433 421.346 3.52061C421.346 2.8243 421.552 2.14362 421.939 1.56466C422.325 0.985703 422.874 0.534458 423.517 0.267992C424.16 0.00152544 424.867 -0.0681943 425.549 0.067649C426.231 0.203492 426.858 0.538798 427.35 1.03116C427.842 1.52353 428.177 2.15084 428.312 2.83377C428.448 3.5167 428.379 4.22458 428.112 4.86789C427.846 5.51119 427.395 6.06104 426.817 6.44789ZM503.998 7.04122C504.694 7.04122 505.374 6.83474 505.952 6.44789C506.53 6.06104 506.981 5.51119 507.247 4.86789C507.513 4.22458 507.583 3.5167 507.447 2.83377C507.312 2.15084 506.977 1.52353 506.485 1.03116C505.993 0.538798 505.366 0.203492 504.684 0.067649C504.002 -0.0681943 503.295 0.00152544 502.652 0.267992C502.009 0.534458 501.46 0.985703 501.074 1.56466C500.687 2.14362 500.481 2.8243 500.481 3.52061C500.481 4.45433 500.851 5.34981 501.511 6.01005C502.171 6.6703 503.065 7.04122 503.998 7.04122ZM585.086 6.44789C584.508 6.83474 583.828 7.04122 583.132 7.04122C582.67 7.04122 582.213 6.95015 581.786 6.77322C581.359 6.5963 580.972 6.33697 580.645 6.01005C580.319 5.68313 580.059 5.29503 579.883 4.86789C579.706 4.44075 579.615 3.98294 579.615 3.52061C579.615 2.8243 579.821 2.14362 580.208 1.56466C580.594 0.985703 581.143 0.534458 581.786 0.267992C582.429 0.00152544 583.136 -0.0681943 583.818 0.067649C584.5 0.203492 585.127 0.538798 585.619 1.03116C586.111 1.52353 586.446 2.15084 586.582 2.83377C586.717 3.5167 586.648 4.22458 586.381 4.86789C586.115 5.51119 585.664 6.06104 585.086 6.44789ZM662.266 7.04122C662.962 7.04122 663.642 6.83474 664.22 6.44789C664.799 6.06104 665.249 5.51119 665.516 4.86789C665.782 4.22458 665.851 3.5167 665.716 2.83377C665.58 2.15084 665.245 1.52353 664.753 1.03116C664.261 0.538798 663.635 0.203492 662.952 0.067649C662.27 -0.0681943 661.563 0.00152544 660.92 0.267992C660.278 0.534458 659.728 0.985703 659.342 1.56466C658.955 2.14362 658.749 2.8243 658.749 3.52061C658.749 3.98294 658.84 4.44075 659.017 4.86789C659.194 5.29503 659.453 5.68313 659.779 6.01005C660.106 6.33697 660.494 6.5963 660.92 6.77322C661.347 6.95015 661.804 7.04122 662.266 7.04122ZM743.355 6.44789C742.777 6.83474 742.097 7.04122 741.401 7.04122C740.939 7.04122 740.482 6.95015 740.055 6.77322C739.629 6.5963 739.241 6.33697 738.914 6.01005C738.588 5.68313 738.329 5.29503 738.152 4.86789C737.975 4.44075 737.884 3.98294 737.884 3.52061C737.884 2.8243 738.09 2.14362 738.477 1.56466C738.863 0.985703 739.413 0.534458 740.055 0.267992C740.698 0.00152544 741.405 -0.0681943 742.087 0.067649C742.77 0.203492 743.396 0.538798 743.888 1.03116C744.38 1.52353 744.715 2.15084 744.851 2.83377C744.986 3.5167 744.917 4.22458 744.651 4.86789C744.384 5.51119 743.934 6.06104 743.355 6.44789ZM820.535 7.04122C821.231 7.04122 821.911 6.83474 822.489 6.44789C823.068 6.06104 823.518 5.51119 823.785 4.86789C824.051 4.22458 824.12 3.5167 823.985 2.83377C823.849 2.15084 823.514 1.52353 823.022 1.03116C822.53 0.538798 821.904 0.203492 821.221 0.067649C820.539 -0.0681943 819.832 0.00152544 819.189 0.267992C818.547 0.534458 817.997 0.985703 817.611 1.56466C817.224 2.14362 817.018 2.8243 817.018 3.52061C817.018 3.98294 817.109 4.44075 817.286 4.86789C817.463 5.29503 817.722 5.68313 818.048 6.01005C818.375 6.33697 818.763 6.5963 819.189 6.77322C819.616 6.95015 820.073 7.04122 820.535 7.04122ZM901.624 6.44789C901.046 6.83474 900.366 7.04122 899.67 7.04122C899.208 7.04122 898.751 6.95015 898.324 6.77322C897.898 6.5963 897.51 6.33697 897.183 6.01005C896.857 5.68313 896.598 5.29503 896.421 4.86789C896.244 4.44075 896.153 3.98294 896.153 3.52061C896.153 2.8243 896.359 2.14362 896.746 1.56466C897.132 0.985703 897.682 0.534458 898.324 0.267992C898.967 0.00152544 899.674 -0.0681943 900.356 0.067649C901.039 0.203492 901.665 0.538798 902.157 1.03116C902.649 1.52353 902.984 2.15084 903.12 2.83377C903.255 3.5167 903.186 4.22458 902.92 4.86789C902.653 5.51119 902.203 6.06104 901.624 6.44789ZM434.096 82.7347C434.096 87.8387 429.962 91.9763 424.864 91.9763C419.765 91.9763 415.631 87.8387 415.631 82.7347C415.631 77.6307 419.765 73.4931 424.864 73.4931C429.962 73.4931 434.096 77.6307 434.096 82.7347ZM513.231 82.7347C513.231 87.8387 509.098 91.9763 503.999 91.9763C498.9 91.9763 494.766 87.8387 494.766 82.7347C494.766 77.6307 498.9 73.4931 503.999 73.4931C509.098 73.4931 513.231 77.6307 513.231 82.7347ZM583.133 91.9763C588.232 91.9763 592.365 87.8387 592.365 82.7347C592.365 77.6307 588.232 73.4931 583.133 73.4931C578.034 73.4931 573.9 77.6307 573.9 82.7347C573.9 87.8387 578.034 91.9763 583.133 91.9763ZM671.499 82.7347C671.499 87.8387 667.366 91.9763 662.267 91.9763C657.168 91.9763 653.034 87.8387 653.034 82.7347C653.034 77.6307 657.168 73.4931 662.267 73.4931C667.366 73.4931 671.499 77.6307 671.499 82.7347ZM741.402 91.9763C746.501 91.9763 750.634 87.8387 750.634 82.7347C750.634 77.6307 746.501 73.4931 741.402 73.4931C736.303 73.4931 732.169 77.6307 732.169 82.7347C732.169 87.8387 736.303 91.9763 741.402 91.9763ZM829.769 82.7347C829.769 87.8387 825.636 91.9763 820.537 91.9763C815.438 91.9763 811.304 87.8387 811.304 82.7347C811.304 77.6307 815.438 73.4931 820.537 73.4931C825.636 73.4931 829.769 77.6307 829.769 82.7347ZM899.671 91.9763C904.77 91.9763 908.903 87.8387 908.903 82.7347C908.903 77.6307 904.77 73.4931 899.671 73.4931C894.572 73.4931 890.438 77.6307 890.438 82.7347C890.438 87.8387 894.572 91.9763 899.671 91.9763ZM988.037 82.7347C988.037 87.8387 983.904 91.9763 978.805 91.9763C973.706 91.9763 969.573 87.8387 969.573 82.7347C969.573 77.6307 973.706 73.4931 978.805 73.4931C983.904 73.4931 988.037 77.6307 988.037 82.7347ZM1057.94 91.9763C1063.04 91.9763 1067.17 87.8387 1067.17 82.7347C1067.17 77.6307 1063.04 73.4931 1057.94 73.4931C1052.84 73.4931 1048.71 77.6307 1048.71 82.7347C1048.71 87.8387 1052.84 91.9763 1057.94 91.9763ZM1146.31 82.7347C1146.31 87.8387 1142.17 91.9763 1137.07 91.9763C1131.98 91.9763 1127.84 87.8387 1127.84 82.7347C1127.84 77.6307 1131.98 73.4931 1137.07 73.4931C1142.17 73.4931 1146.31 77.6307 1146.31 82.7347ZM1216.21 91.9763C1221.31 91.9763 1225.44 87.8387 1225.44 82.7347C1225.44 77.6307 1221.31 73.4931 1216.21 73.4931C1211.11 73.4931 1206.98 77.6307 1206.98 82.7347C1206.98 87.8387 1211.11 91.9763 1216.21 91.9763ZM1304.57 82.7347C1304.57 87.8387 1300.44 91.9763 1295.34 91.9763C1290.24 91.9763 1286.11 87.8387 1286.11 82.7347C1286.11 77.6307 1290.24 73.4931 1295.34 73.4931C1300.44 73.4931 1304.57 77.6307 1304.57 82.7347ZM1374.48 91.9763C1379.58 91.9763 1383.71 87.8387 1383.71 82.7347C1383.71 77.6307 1379.58 73.4931 1374.48 73.4931C1369.38 73.4931 1365.24 77.6307 1365.24 82.7347C1365.24 87.8387 1369.38 91.9763 1374.48 91.9763ZM1462.84 82.7347C1462.84 87.8387 1458.71 91.9763 1453.61 91.9763C1448.51 91.9763 1444.38 87.8387 1444.38 82.7347C1444.38 77.6307 1448.51 73.4931 1453.61 73.4931C1458.71 73.4931 1462.84 77.6307 1462.84 82.7347ZM1532.75 91.9763C1537.85 91.9763 1541.98 87.8387 1541.98 82.7347C1541.98 77.6307 1537.85 73.4931 1532.75 73.4931C1527.65 73.4931 1523.51 77.6307 1523.51 82.7347C1523.51 87.8387 1527.65 91.9763 1532.75 91.9763ZM1621.11 82.7347C1621.11 87.8387 1616.98 91.9763 1611.88 91.9763C1606.78 91.9763 1602.65 87.8387 1602.65 82.7347C1602.65 77.6307 1606.78 73.4931 1611.88 73.4931C1616.98 73.4931 1621.11 77.6307 1621.11 82.7347ZM1691.02 91.9763C1696.11 91.9763 1700.25 87.8387 1700.25 82.7347C1700.25 77.6307 1696.11 73.4931 1691.02 73.4931C1685.92 73.4931 1681.78 77.6307 1681.78 82.7347C1681.78 87.8387 1685.92 91.9763 1691.02 91.9763ZM1773.81 88.223C1772.73 88.9483 1771.45 89.3355 1770.15 89.3355C1768.4 89.3355 1766.72 88.64 1765.49 87.4021C1764.25 86.1641 1763.56 84.4851 1763.56 82.7344C1763.56 81.4288 1763.94 80.1525 1764.67 79.067C1765.39 77.9814 1766.42 77.1353 1767.63 76.6357C1768.83 76.1361 1770.16 76.0053 1771.44 76.2601C1772.72 76.5148 1773.89 77.1435 1774.81 78.0667C1775.74 78.9898 1776.36 80.166 1776.62 81.4465C1776.87 82.727 1776.74 84.0543 1776.24 85.2605C1775.74 86.4667 1774.9 87.4977 1773.81 88.223ZM34.9364 170.502C33.2364 171.64 31.2372 172.248 29.192 172.248C27.8373 172.253 26.4948 171.991 25.2416 171.477C23.9884 170.962 22.8491 170.204 21.8892 169.247C20.9293 168.29 20.1676 167.153 19.6478 165.901C19.1281 164.649 18.8605 163.306 18.8605 161.95C18.8518 159.903 19.4504 157.899 20.5803 156.192C21.7102 154.486 23.3207 153.154 25.2078 152.364C27.0948 151.575 29.1735 151.363 31.1805 151.758C33.1875 152.152 35.0324 153.133 36.4817 154.578C37.931 156.022 38.9193 157.865 39.3216 159.872C39.7238 161.879 39.5218 163.961 38.7411 165.853C37.9605 167.746 36.6363 169.363 34.9364 170.502ZM108.327 176.647C111.242 176.647 114.091 175.782 116.514 174.16C118.937 172.538 120.824 170.233 121.938 167.536C123.051 164.84 123.34 161.873 122.768 159.012C122.197 156.151 120.79 153.525 118.725 151.465C116.661 149.405 114.033 148.004 111.173 147.44C108.313 146.876 105.351 147.175 102.66 148.297C99.97 149.42 97.6729 151.316 96.0599 153.746C94.4469 156.177 93.5905 159.031 93.5992 161.949C93.5934 163.884 93.9706 165.802 94.7092 167.591C95.4479 169.38 96.5332 171.004 97.9025 172.371C99.2719 173.738 100.898 174.819 102.687 175.553C104.477 176.287 106.393 176.659 108.327 176.647ZM195.647 174.16C193.224 175.782 190.375 176.647 187.46 176.647C185.527 176.659 183.61 176.287 181.821 175.553C180.031 174.819 178.405 173.738 177.036 172.371C175.666 171.004 174.581 169.38 173.842 167.591C173.104 165.802 172.727 163.884 172.732 161.949C172.724 159.031 173.58 156.177 175.193 153.746C176.806 151.316 179.103 149.42 181.794 148.297C184.484 147.175 187.447 146.876 190.306 147.44C193.166 148.004 195.795 149.405 197.859 151.465C199.923 153.525 201.33 156.151 201.902 159.012C202.474 161.873 202.184 164.84 201.071 167.536C199.958 170.233 198.07 172.538 195.647 174.16ZM266.595 176.647C269.51 176.647 272.359 175.782 274.782 174.16C277.205 172.538 279.093 170.233 280.206 167.536C281.319 164.84 281.608 161.873 281.037 159.012C280.465 156.151 279.058 153.525 276.994 151.465C274.93 149.405 272.301 148.004 269.441 147.44C266.582 146.876 263.619 147.175 260.929 148.297C258.238 149.42 255.941 151.316 254.328 153.746C252.715 156.177 251.859 159.031 251.867 161.949C251.862 163.884 252.239 165.802 252.977 167.591C253.716 169.38 254.801 171.004 256.171 172.371C257.54 173.738 259.166 174.819 260.956 175.553C262.745 176.287 264.662 176.659 266.595 176.647ZM353.916 174.16C351.493 175.782 348.644 176.647 345.729 176.647C343.796 176.659 341.879 176.287 340.09 175.553C338.3 174.819 336.674 173.738 335.305 172.371C333.935 171.004 332.85 169.38 332.112 167.591C331.373 165.802 330.996 163.884 331.001 161.949C330.993 159.031 331.849 156.177 333.462 153.746C335.075 151.316 337.372 149.42 340.063 148.297C342.753 147.175 345.716 146.876 348.576 147.44C351.435 148.004 354.064 149.405 356.128 151.465C358.192 153.525 359.599 156.151 360.171 159.012C360.743 161.873 360.454 164.84 359.34 167.536C358.227 170.233 356.339 172.538 353.916 174.16ZM424.864 176.647C427.779 176.647 430.628 175.782 433.051 174.16C435.474 172.538 437.362 170.233 438.475 167.536C439.589 164.84 439.878 161.873 439.306 159.012C438.734 156.151 437.327 153.525 435.263 151.465C433.199 149.405 430.57 148.004 427.71 147.44C424.851 146.876 421.888 147.175 419.198 148.297C416.507 149.42 414.21 151.316 412.597 153.746C410.984 156.177 410.128 159.031 410.136 161.949C410.131 163.884 410.508 165.802 411.246 167.591C411.985 169.38 413.07 171.004 414.44 172.371C415.809 173.738 417.435 174.819 419.225 175.553C421.014 176.287 422.931 176.659 424.864 176.647ZM512.185 174.16C509.762 175.782 506.913 176.647 503.998 176.647C502.065 176.659 500.148 176.287 498.359 175.553C496.569 174.819 494.943 173.738 493.574 172.371C492.205 171.004 491.119 169.38 490.381 167.591C489.642 165.802 489.265 163.884 489.271 161.949C489.262 159.031 490.118 156.177 491.731 153.746C493.344 151.316 495.641 149.42 498.332 148.297C501.022 147.175 503.985 146.876 506.845 147.44C509.704 148.004 512.333 149.405 514.397 151.465C516.461 153.525 517.868 156.151 518.44 159.012C519.012 161.873 518.723 164.84 517.609 167.536C516.496 170.233 514.608 172.538 512.185 174.16ZM583.132 176.647C586.047 176.647 588.896 175.782 591.319 174.16C593.742 172.538 595.63 170.233 596.743 167.536C597.857 164.84 598.146 161.873 597.574 159.012C597.002 156.151 595.595 153.525 593.531 151.465C591.467 149.405 588.838 148.004 585.979 147.44C583.119 146.876 580.156 147.175 577.466 148.297C574.775 149.42 572.478 151.316 570.865 153.746C569.252 156.177 568.396 159.031 568.405 161.949C568.399 163.884 568.776 165.802 569.515 167.591C570.253 169.38 571.339 171.004 572.708 172.371C574.077 173.738 575.704 174.819 577.493 175.553C579.282 176.287 581.199 176.659 583.132 176.647ZM670.454 174.16C668.031 175.782 665.182 176.647 662.267 176.647C660.334 176.659 658.417 176.287 656.628 175.553C654.839 174.819 653.212 173.738 651.843 172.371C650.474 171.004 649.388 169.38 648.65 167.591C647.911 165.802 647.534 163.884 647.54 161.949C647.531 159.031 648.387 156.177 650 153.746C651.613 151.316 653.91 149.42 656.601 148.297C659.291 147.175 662.254 146.876 665.114 147.44C667.973 148.004 670.602 149.405 672.666 151.465C674.73 153.525 676.137 156.151 676.709 159.012C677.281 161.873 676.992 164.84 675.878 167.536C674.765 170.233 672.877 172.538 670.454 174.16ZM741.401 176.647C744.316 176.647 747.165 175.782 749.588 174.16C752.011 172.538 753.899 170.233 755.012 167.536C756.126 164.84 756.415 161.873 755.843 159.012C755.271 156.151 753.864 153.525 751.8 151.465C749.736 149.405 747.107 148.004 744.248 147.44C741.388 146.876 738.425 147.175 735.735 148.297C733.044 149.42 730.747 151.316 729.134 153.746C727.521 156.177 726.665 159.031 726.674 161.949C726.668 163.884 727.045 165.802 727.784 167.591C728.522 169.38 729.608 171.004 730.977 172.371C732.346 173.738 733.973 174.819 735.762 175.553C737.551 176.287 739.468 176.659 741.401 176.647ZM828.723 174.16C826.3 175.782 823.451 176.647 820.536 176.647C818.603 176.659 816.686 176.287 814.897 175.553C813.108 174.819 811.481 173.738 810.112 172.371C808.743 171.004 807.657 169.38 806.919 167.591C806.18 165.802 805.803 163.884 805.809 161.949C805.8 159.031 806.656 156.177 808.269 153.746C809.882 151.316 812.179 149.42 814.87 148.297C817.56 147.175 820.523 146.876 823.383 147.44C826.242 148.004 828.871 149.405 830.935 151.465C832.999 153.525 834.406 156.151 834.978 159.012C835.55 161.873 835.261 164.84 834.147 167.536C833.034 170.233 831.146 172.538 828.723 174.16ZM899.671 176.647C902.585 176.647 905.435 175.782 907.858 174.16C910.281 172.538 912.168 170.233 913.282 167.536C914.395 164.84 914.684 161.873 914.112 159.012C913.54 156.151 912.133 153.525 910.069 151.465C908.005 149.405 905.377 148.004 902.517 147.44C899.657 146.876 896.694 147.175 894.004 148.297C891.314 149.42 889.017 151.316 887.404 153.746C885.79 156.177 884.934 159.031 884.943 161.949C884.937 163.884 885.314 165.802 886.053 167.591C886.791 169.38 887.877 171.004 889.246 172.371C890.616 173.738 892.242 174.819 894.031 175.553C895.82 176.287 897.737 176.659 899.671 176.647ZM986.992 174.16C984.569 175.782 981.72 176.647 978.805 176.647C976.872 176.659 974.955 176.287 973.166 175.553C971.377 174.819 969.75 173.738 968.381 172.371C967.012 171.004 965.926 169.38 965.188 167.591C964.449 165.802 964.072 163.884 964.078 161.949C964.069 159.031 964.925 156.177 966.538 153.746C968.151 151.316 970.448 149.42 973.139 148.297C975.829 147.175 978.792 146.876 981.652 147.44C984.511 148.004 987.14 149.405 989.204 151.465C991.268 153.525 992.675 156.151 993.247 159.012C993.819 161.873 993.53 164.84 992.416 167.536C991.303 170.233 989.415 172.538 986.992 174.16ZM1057.94 176.647C1060.85 176.647 1063.7 175.782 1066.13 174.16C1068.55 172.538 1070.44 170.233 1071.55 167.536C1072.66 164.84 1072.95 161.873 1072.38 159.012C1071.81 156.151 1070.4 153.525 1068.34 151.465C1066.27 149.405 1063.65 148.004 1060.79 147.44C1057.93 146.876 1054.96 147.175 1052.27 148.297C1049.58 149.42 1047.29 151.316 1045.67 153.746C1044.06 156.177 1043.2 159.031 1043.21 161.949C1043.21 163.884 1043.58 165.802 1044.32 167.591C1045.06 169.38 1046.15 171.004 1047.52 172.371C1048.88 173.738 1050.51 174.819 1052.3 175.553C1054.09 176.287 1056.01 176.659 1057.94 176.647ZM1145.26 174.16C1142.84 175.782 1139.99 176.647 1137.07 176.647C1135.14 176.659 1133.22 176.287 1131.43 175.553C1129.64 174.819 1128.02 173.738 1126.65 172.371C1125.28 171.004 1124.19 169.38 1123.46 167.591C1122.72 165.802 1122.34 163.884 1122.35 161.949C1122.34 159.031 1123.19 156.177 1124.81 153.746C1126.42 151.316 1128.72 149.42 1131.41 148.297C1134.1 147.175 1137.06 146.876 1139.92 147.44C1142.78 148.004 1145.41 149.405 1147.47 151.465C1149.54 153.525 1150.94 156.151 1151.52 159.012C1152.09 161.873 1151.8 164.84 1150.68 167.536C1149.57 170.233 1147.68 172.538 1145.26 174.16ZM1216.21 176.647C1219.12 176.647 1221.97 175.782 1224.39 174.16C1226.82 172.538 1228.71 170.233 1229.82 167.536C1230.93 164.84 1231.22 161.873 1230.65 159.012C1230.08 156.151 1228.67 153.525 1226.61 151.465C1224.54 149.405 1221.91 148.004 1219.05 147.44C1216.19 146.876 1213.23 147.175 1210.54 148.297C1207.85 149.42 1205.55 151.316 1203.94 153.746C1202.33 156.177 1201.47 159.031 1201.48 161.949C1201.47 163.884 1201.85 165.802 1202.59 167.591C1203.33 169.38 1204.41 171.004 1205.78 172.371C1207.15 173.738 1208.78 174.819 1210.57 175.553C1212.36 176.287 1214.27 176.659 1216.21 176.647ZM1303.53 174.16C1301.11 175.782 1298.26 176.647 1295.34 176.647C1293.41 176.659 1291.49 176.287 1289.7 175.553C1287.91 174.819 1286.29 173.738 1284.92 172.371C1283.55 171.004 1282.46 169.38 1281.72 167.591C1280.99 165.802 1280.61 163.884 1280.61 161.949C1280.61 159.031 1281.46 156.177 1283.08 153.746C1284.69 151.316 1286.99 149.42 1289.68 148.297C1292.37 147.175 1295.33 146.876 1298.19 147.44C1301.05 148.004 1303.68 149.405 1305.74 151.465C1307.81 153.525 1309.21 156.151 1309.78 159.012C1310.36 161.873 1310.07 164.84 1308.95 167.536C1307.84 170.233 1305.95 172.538 1303.53 174.16ZM1382.66 174.16C1380.24 175.782 1377.39 176.647 1374.48 176.647C1372.54 176.659 1370.63 176.287 1368.84 175.553C1367.05 174.819 1365.42 173.738 1364.05 172.371C1362.68 171.004 1361.6 169.38 1360.86 167.591C1360.12 165.802 1359.74 163.884 1359.75 161.949C1359.74 159.031 1360.6 156.177 1362.21 153.746C1363.82 151.316 1366.12 149.42 1368.81 148.297C1371.5 147.175 1374.46 146.876 1377.32 147.44C1380.18 148.004 1382.81 149.405 1384.88 151.465C1386.94 153.525 1388.35 156.151 1388.92 159.012C1389.49 161.873 1389.2 164.84 1388.09 167.536C1386.97 170.233 1385.09 172.538 1382.66 174.16ZM1461.8 174.16C1459.38 175.782 1456.53 176.647 1453.61 176.647C1451.68 176.659 1449.76 176.287 1447.97 175.553C1446.18 174.819 1444.56 173.738 1443.19 172.371C1441.82 171.004 1440.73 169.38 1439.99 167.591C1439.25 165.802 1438.88 163.884 1438.88 161.949C1438.87 159.031 1439.73 156.177 1441.34 153.746C1442.96 151.316 1445.25 149.42 1447.94 148.297C1450.63 147.175 1453.6 146.876 1456.46 147.44C1459.32 148.004 1461.95 149.405 1464.01 151.465C1466.07 153.525 1467.48 156.151 1468.05 159.012C1468.62 161.873 1468.34 164.84 1467.22 167.536C1466.11 170.233 1464.22 172.538 1461.8 174.16ZM1532.75 176.647C1535.66 176.647 1538.51 175.782 1540.93 174.16C1543.36 172.538 1545.24 170.233 1546.36 167.536C1547.47 164.84 1547.76 161.873 1547.19 159.012C1546.62 156.151 1545.21 153.525 1543.15 151.465C1541.08 149.405 1538.45 148.004 1535.59 147.44C1532.73 146.876 1529.77 147.175 1527.08 148.297C1524.39 149.42 1522.09 151.316 1520.48 153.746C1518.87 156.177 1518.01 159.031 1518.02 161.949C1518.01 163.884 1518.39 165.802 1519.13 167.591C1519.87 169.38 1520.95 171.004 1522.32 172.371C1523.69 173.738 1525.32 174.819 1527.11 175.553C1528.9 176.287 1530.81 176.659 1532.75 176.647ZM1620.07 174.16C1617.64 175.782 1614.8 176.647 1611.88 176.647C1609.95 176.659 1608.03 176.287 1606.24 175.553C1604.45 174.819 1602.83 173.738 1601.46 172.371C1600.09 171.004 1599 169.38 1598.26 167.591C1597.52 165.802 1597.15 163.884 1597.15 161.949C1597.14 159.031 1598 156.177 1599.61 153.746C1601.23 151.316 1603.52 149.42 1606.21 148.297C1608.9 147.175 1611.87 146.876 1614.73 147.44C1617.59 148.004 1620.22 149.405 1622.28 151.465C1624.34 153.525 1625.75 156.151 1626.32 159.012C1626.89 161.873 1626.61 164.84 1625.49 167.536C1624.38 170.233 1622.49 172.538 1620.07 174.16ZM1691.01 176.647C1693.93 176.647 1696.78 175.782 1699.2 174.16C1701.62 172.538 1703.51 170.233 1704.63 167.536C1705.74 164.84 1706.03 161.873 1705.46 159.012C1704.88 156.151 1703.48 153.525 1701.41 151.465C1699.35 149.405 1696.72 148.004 1693.86 147.44C1691 146.876 1688.04 147.175 1685.35 148.297C1682.66 149.42 1680.36 151.316 1678.75 153.746C1677.13 156.177 1676.28 159.031 1676.29 161.949C1676.28 163.884 1676.66 165.802 1677.4 167.591C1678.14 169.38 1679.22 171.004 1680.59 172.371C1681.96 173.738 1683.59 174.819 1685.38 175.553C1687.16 176.287 1689.08 176.659 1691.01 176.647ZM1776.01 170.681C1774.28 171.844 1772.24 172.464 1770.15 172.464C1768.76 172.47 1767.39 172.202 1766.11 171.676C1764.83 171.15 1763.67 170.377 1762.69 169.399C1761.71 168.422 1760.93 167.261 1760.4 165.982C1759.87 164.703 1759.6 163.331 1759.6 161.946C1759.59 159.856 1760.2 157.809 1761.35 156.067C1762.51 154.324 1764.15 152.963 1766.08 152.157C1768.01 151.351 1770.13 151.136 1772.18 151.538C1774.23 151.941 1776.11 152.943 1777.59 154.419C1779.07 155.894 1780.08 157.776 1780.49 159.826C1780.9 161.876 1780.7 164.002 1779.9 165.934C1779.1 167.867 1777.75 169.519 1776.01 170.681ZM29.1925 255.2C36.938 255.2 43.2169 248.915 43.2169 241.162C43.2169 233.409 36.938 227.124 29.1925 227.124C21.4471 227.124 15.1682 233.409 15.1682 241.162C15.1682 248.915 21.4471 255.2 29.1925 255.2ZM128.505 241.161C128.505 252.317 119.47 261.361 108.326 261.361C97.181 261.361 88.1464 252.317 88.1464 241.161C88.1464 230.005 97.181 220.962 108.326 220.962C119.47 220.962 128.505 230.005 128.505 241.161ZM187.46 261.361C198.604 261.361 207.639 252.317 207.639 241.161C207.639 230.005 198.604 220.962 187.46 220.962C176.315 220.962 167.28 230.005 167.28 241.161C167.28 252.317 176.315 261.361 187.46 261.361ZM286.774 241.161C286.774 252.317 277.739 261.361 266.595 261.361C255.45 261.361 246.415 252.317 246.415 241.161C246.415 230.005 255.45 220.962 266.595 220.962C277.739 220.962 286.774 230.005 286.774 241.161ZM345.729 261.361C356.873 261.361 365.908 252.317 365.908 241.161C365.908 230.005 356.873 220.962 345.729 220.962C334.584 220.962 325.55 230.005 325.55 241.161C325.55 252.317 334.584 261.361 345.729 261.361ZM445.042 241.161C445.042 252.317 436.008 261.361 424.863 261.361C413.718 261.361 404.684 252.317 404.684 241.161C404.684 230.005 413.718 220.962 424.863 220.962C436.008 220.962 445.042 230.005 445.042 241.161ZM503.997 261.361C515.142 261.361 524.176 252.317 524.176 241.161C524.176 230.005 515.142 220.962 503.997 220.962C492.852 220.962 483.818 230.005 483.818 241.161C483.818 252.317 492.852 261.361 503.997 261.361ZM603.311 241.161C603.311 252.317 594.277 261.361 583.132 261.361C571.987 261.361 562.953 252.317 562.953 241.161C562.953 230.005 571.987 220.962 583.132 220.962C594.277 220.962 603.311 230.005 603.311 241.161ZM662.266 261.361C673.411 261.361 682.445 252.317 682.445 241.161C682.445 230.005 673.411 220.962 662.266 220.962C651.121 220.962 642.087 230.005 642.087 241.161C642.087 252.317 651.121 261.361 662.266 261.361ZM761.58 241.161C761.58 252.317 752.546 261.361 741.401 261.361C730.256 261.361 721.222 252.317 721.222 241.161C721.222 230.005 730.256 220.962 741.401 220.962C752.546 220.962 761.58 230.005 761.58 241.161ZM820.536 261.361C831.681 261.361 840.715 252.317 840.715 241.161C840.715 230.005 831.681 220.962 820.536 220.962C809.391 220.962 800.357 230.005 800.357 241.161C800.357 252.317 809.391 261.361 820.536 261.361ZM919.849 241.161C919.849 252.317 910.815 261.361 899.67 261.361C888.525 261.361 879.491 252.317 879.491 241.161C879.491 230.005 888.525 220.962 899.67 220.962C910.815 220.962 919.849 230.005 919.849 241.161ZM978.804 261.361C989.949 261.361 998.983 252.317 998.983 241.161C998.983 230.005 989.949 220.962 978.804 220.962C967.659 220.962 958.625 230.005 958.625 241.161C958.625 252.317 967.659 261.361 978.804 261.361ZM1078.12 241.161C1078.12 252.317 1069.08 261.361 1057.94 261.361C1046.79 261.361 1037.76 252.317 1037.76 241.161C1037.76 230.005 1046.79 220.962 1057.94 220.962C1069.08 220.962 1078.12 230.005 1078.12 241.161ZM1157.25 241.161C1157.25 252.317 1148.22 261.361 1137.07 261.361C1125.93 261.361 1116.89 252.317 1116.89 241.161C1116.89 230.005 1125.93 220.962 1137.07 220.962C1148.22 220.962 1157.25 230.005 1157.25 241.161ZM1216.21 261.361C1227.35 261.361 1236.39 252.317 1236.39 241.161C1236.39 230.005 1227.35 220.962 1216.21 220.962C1205.06 220.962 1196.03 230.005 1196.03 241.161C1196.03 252.317 1205.06 261.361 1216.21 261.361ZM1315.52 241.161C1315.52 252.317 1306.49 261.361 1295.34 261.361C1284.2 261.361 1275.16 252.317 1275.16 241.161C1275.16 230.005 1284.2 220.962 1295.34 220.962C1306.49 220.962 1315.52 230.005 1315.52 241.161ZM1374.48 261.361C1385.62 261.361 1394.66 252.317 1394.66 241.161C1394.66 230.005 1385.62 220.962 1374.48 220.962C1363.33 220.962 1354.3 230.005 1354.3 241.161C1354.3 252.317 1363.33 261.361 1374.48 261.361ZM1473.79 241.161C1473.79 252.317 1464.76 261.361 1453.61 261.361C1442.47 261.361 1433.43 252.317 1433.43 241.161C1433.43 230.005 1442.47 220.962 1453.61 220.962C1464.76 220.962 1473.79 230.005 1473.79 241.161ZM1532.75 261.361C1543.89 261.361 1552.92 252.317 1552.92 241.161C1552.92 230.005 1543.89 220.962 1532.75 220.962C1521.6 220.962 1512.57 230.005 1512.57 241.161C1512.57 252.317 1521.6 261.361 1532.75 261.361ZM1632.06 241.161C1632.06 252.317 1623.02 261.361 1611.88 261.361C1600.73 261.361 1591.7 252.317 1591.7 241.161C1591.7 230.005 1600.73 220.962 1611.88 220.962C1623.02 220.962 1632.06 230.005 1632.06 241.161ZM1691.01 261.361C1702.16 261.361 1711.19 252.317 1711.19 241.161C1711.19 230.005 1702.16 220.962 1691.01 220.962C1679.87 220.962 1670.84 230.005 1670.84 241.161C1670.84 252.317 1679.87 261.361 1691.01 261.361ZM1778.21 253.19C1775.83 254.788 1773.02 255.641 1770.15 255.641C1768.25 255.646 1766.36 255.276 1764.6 254.551C1762.84 253.826 1761.24 252.761 1759.89 251.416C1758.55 250.071 1757.48 248.472 1756.75 246.713C1756.02 244.954 1755.64 243.067 1755.64 241.162C1755.63 238.288 1756.48 235.476 1758.06 233.082C1759.65 230.688 1761.92 228.82 1764.57 227.714C1767.22 226.608 1770.14 226.314 1772.95 226.869C1775.77 227.425 1778.36 228.804 1780.39 230.834C1782.43 232.863 1783.81 235.45 1784.37 238.269C1784.94 241.087 1784.65 244.009 1783.56 246.665C1782.46 249.322 1780.6 251.592 1778.21 253.19ZM29.1923 338.153C39.0016 338.153 46.9536 330.193 46.9536 320.374C46.9536 310.555 39.0016 302.595 29.1923 302.595C19.383 302.595 11.4311 310.555 11.4311 320.374C11.4311 330.193 19.383 338.153 29.1923 338.153ZM133.782 320.373C133.782 334.446 122.385 345.854 108.327 345.854C94.2686 345.854 82.8721 334.446 82.8721 320.373C82.8721 306.301 94.2686 294.893 108.327 294.893C122.385 294.893 133.782 306.301 133.782 320.373ZM187.461 345.854C201.519 345.854 212.916 334.446 212.916 320.373C212.916 306.301 201.519 294.893 187.461 294.893C173.403 294.893 162.006 306.301 162.006 320.373C162.006 334.446 173.403 345.854 187.461 345.854ZM292.05 320.373C292.05 334.446 280.654 345.854 266.595 345.854C252.537 345.854 241.14 334.446 241.14 320.373C241.14 306.301 252.537 294.893 266.595 294.893C280.654 294.893 292.05 306.301 292.05 320.373ZM345.729 345.854C359.788 345.854 371.184 334.446 371.184 320.373C371.184 306.301 359.788 294.893 345.729 294.893C331.671 294.893 320.274 306.301 320.274 320.373C320.274 334.446 331.671 345.854 345.729 345.854ZM450.319 320.373C450.319 334.446 438.923 345.854 424.864 345.854C410.806 345.854 399.409 334.446 399.409 320.373C399.409 306.301 410.806 294.893 424.864 294.893C438.923 294.893 450.319 306.301 450.319 320.373ZM503.998 345.854C518.057 345.854 529.453 334.446 529.453 320.373C529.453 306.301 518.057 294.893 503.998 294.893C489.94 294.893 478.543 306.301 478.543 320.373C478.543 334.446 489.94 345.854 503.998 345.854ZM608.588 320.373C608.588 334.446 597.192 345.854 583.133 345.854C569.075 345.854 557.678 334.446 557.678 320.373C557.678 306.301 569.075 294.893 583.133 294.893C597.192 294.893 608.588 306.301 608.588 320.373ZM662.267 345.854C676.326 345.854 687.722 334.446 687.722 320.373C687.722 306.301 676.326 294.893 662.267 294.893C648.209 294.893 636.812 306.301 636.812 320.373C636.812 334.446 648.209 345.854 662.267 345.854ZM766.856 320.373C766.856 334.446 755.46 345.854 741.401 345.854C727.343 345.854 715.947 334.446 715.947 320.373C715.947 306.301 727.343 294.893 741.401 294.893C755.46 294.893 766.856 306.301 766.856 320.373ZM845.991 320.373C845.991 334.446 834.595 345.854 820.536 345.854C806.478 345.854 795.082 334.446 795.082 320.373C795.082 306.301 806.478 294.893 820.536 294.893C834.595 294.893 845.991 306.301 845.991 320.373ZM925.125 320.373C925.125 334.446 913.729 345.854 899.671 345.854C885.612 345.854 874.216 334.446 874.216 320.373C874.216 306.301 885.612 294.893 899.671 294.893C913.729 294.893 925.125 306.301 925.125 320.373ZM978.805 345.854C992.864 345.854 1004.26 334.446 1004.26 320.373C1004.26 306.301 992.864 294.893 978.805 294.893C964.747 294.893 953.351 306.301 953.351 320.373C953.351 334.446 964.747 345.854 978.805 345.854ZM1083.39 320.373C1083.39 334.446 1072 345.854 1057.94 345.854C1043.88 345.854 1032.48 334.446 1032.48 320.373C1032.48 306.301 1043.88 294.893 1057.94 294.893C1072 294.893 1083.39 306.301 1083.39 320.373ZM1137.07 345.854C1151.13 345.854 1162.53 334.446 1162.53 320.373C1162.53 306.301 1151.13 294.893 1137.07 294.893C1123.02 294.893 1111.62 306.301 1111.62 320.373C1111.62 334.446 1123.02 345.854 1137.07 345.854ZM1241.66 320.373C1241.66 334.446 1230.27 345.854 1216.21 345.854C1202.15 345.854 1190.75 334.446 1190.75 320.373C1190.75 306.301 1202.15 294.893 1216.21 294.893C1230.27 294.893 1241.66 306.301 1241.66 320.373ZM1295.34 345.854C1309.4 345.854 1320.8 334.446 1320.8 320.373C1320.8 306.301 1309.4 294.893 1295.34 294.893C1281.28 294.893 1269.89 306.301 1269.89 320.373C1269.89 334.446 1281.28 345.854 1295.34 345.854ZM1399.93 320.373C1399.93 334.446 1388.54 345.854 1374.48 345.854C1360.42 345.854 1349.02 334.446 1349.02 320.373C1349.02 306.301 1360.42 294.893 1374.48 294.893C1388.54 294.893 1399.93 306.301 1399.93 320.373ZM1453.61 345.854C1467.67 345.854 1479.07 334.446 1479.07 320.373C1479.07 306.301 1467.67 294.893 1453.61 294.893C1439.55 294.893 1428.16 306.301 1428.16 320.373C1428.16 334.446 1439.55 345.854 1453.61 345.854ZM1558.2 320.373C1558.2 334.446 1546.8 345.854 1532.75 345.854C1518.69 345.854 1507.29 334.446 1507.29 320.373C1507.29 306.301 1518.69 294.893 1532.75 294.893C1546.8 294.893 1558.2 306.301 1558.2 320.373ZM1611.88 345.854C1625.94 345.854 1637.34 334.446 1637.34 320.373C1637.34 306.301 1625.94 294.893 1611.88 294.893C1597.82 294.893 1586.43 306.301 1586.43 320.373C1586.43 334.446 1597.82 345.854 1611.88 345.854ZM1716.47 320.373C1716.47 334.446 1705.07 345.854 1691.02 345.854C1676.96 345.854 1665.56 334.446 1665.56 320.373C1665.56 306.301 1676.96 294.893 1691.02 294.893C1705.07 294.893 1716.47 306.301 1716.47 320.373ZM1770.15 338.595C1780.2 338.595 1788.35 330.438 1788.35 320.376C1788.35 310.314 1780.2 302.157 1770.15 302.157C1760.1 302.157 1751.95 310.314 1751.95 320.376C1751.95 330.438 1760.1 338.595 1770.15 338.595ZM50.6903 399.59C50.6903 411.475 41.0653 421.109 29.1921 421.109C17.319 421.109 7.69395 411.475 7.69395 399.59C7.69395 387.705 17.319 378.07 29.1921 378.07C41.0653 378.07 50.6903 387.705 50.6903 399.59ZM108.327 430.571C125.42 430.571 139.277 416.7 139.277 399.589C139.277 382.479 125.42 368.608 108.327 368.608C91.2332 368.608 77.3763 382.479 77.3763 399.589C77.3763 416.7 91.2332 430.571 108.327 430.571ZM218.411 399.589C218.411 416.7 204.554 430.571 187.461 430.571C170.367 430.571 156.51 416.7 156.51 399.589C156.51 382.479 170.367 368.608 187.461 368.608C204.554 368.608 218.411 382.479 218.411 399.589ZM266.596 430.571C283.689 430.571 297.546 416.7 297.546 399.589C297.546 382.479 283.689 368.608 266.596 368.608C249.502 368.608 235.645 382.479 235.645 399.589C235.645 416.7 249.502 430.571 266.596 430.571ZM376.68 399.589C376.68 416.7 362.823 430.571 345.73 430.571C328.636 430.571 314.779 416.7 314.779 399.589C314.779 382.479 328.636 368.608 345.73 368.608C362.823 368.608 376.68 382.479 376.68 399.589ZM424.864 430.571C441.957 430.571 455.814 416.7 455.814 399.589C455.814 382.479 441.957 368.608 424.864 368.608C407.77 368.608 393.914 382.479 393.914 399.589C393.914 416.7 407.77 430.571 424.864 430.571ZM534.949 399.589C534.949 416.7 521.092 430.571 503.999 430.571C486.905 430.571 473.048 416.7 473.048 399.589C473.048 382.479 486.905 368.608 503.999 368.608C521.092 368.608 534.949 382.479 534.949 399.589ZM583.133 430.571C600.226 430.571 614.083 416.7 614.083 399.589C614.083 382.479 600.226 368.608 583.133 368.608C566.039 368.608 552.183 382.479 552.183 399.589C552.183 416.7 566.039 430.571 583.133 430.571ZM693.218 399.589C693.218 416.7 679.361 430.571 662.268 430.571C645.174 430.571 631.318 416.7 631.318 399.589C631.318 382.479 645.174 368.608 662.268 368.608C679.361 368.608 693.218 382.479 693.218 399.589ZM772.353 399.589C772.353 416.7 758.496 430.571 741.402 430.571C724.309 430.571 710.452 416.7 710.452 399.589C710.452 382.479 724.309 368.608 741.402 368.608C758.496 368.608 772.353 382.479 772.353 399.589ZM820.537 430.571C837.63 430.571 851.487 416.7 851.487 399.589C851.487 382.479 837.63 368.608 820.537 368.608C803.444 368.608 789.587 382.479 789.587 399.589C789.587 416.7 803.444 430.571 820.537 430.571ZM930.62 399.589C930.62 416.7 916.764 430.571 899.67 430.571C882.577 430.571 868.72 416.7 868.72 399.589C868.72 382.479 882.577 368.608 899.67 368.608C916.764 368.608 930.62 382.479 930.62 399.589ZM978.805 430.571C995.899 430.571 1009.76 416.7 1009.76 399.589C1009.76 382.479 995.899 368.608 978.805 368.608C961.712 368.608 947.855 382.479 947.855 399.589C947.855 416.7 961.712 430.571 978.805 430.571ZM1088.89 399.589C1088.89 416.7 1075.03 430.571 1057.94 430.571C1040.85 430.571 1026.99 416.7 1026.99 399.589C1026.99 382.479 1040.85 368.608 1057.94 368.608C1075.03 368.608 1088.89 382.479 1088.89 399.589ZM1137.07 430.571C1154.17 430.571 1168.02 416.7 1168.02 399.589C1168.02 382.479 1154.17 368.608 1137.07 368.608C1119.98 368.608 1106.12 382.479 1106.12 399.589C1106.12 416.7 1119.98 430.571 1137.07 430.571ZM1247.16 399.589C1247.16 416.7 1233.3 430.571 1216.21 430.571C1199.11 430.571 1185.26 416.7 1185.26 399.589C1185.26 382.479 1199.11 368.608 1216.21 368.608C1233.3 368.608 1247.16 382.479 1247.16 399.589ZM1295.34 430.571C1312.44 430.571 1326.29 416.7 1326.29 399.589C1326.29 382.479 1312.44 368.608 1295.34 368.608C1278.25 368.608 1264.39 382.479 1264.39 399.589C1264.39 416.7 1278.25 430.571 1295.34 430.571ZM1405.43 399.589C1405.43 416.7 1391.57 430.571 1374.48 430.571C1357.38 430.571 1343.53 416.7 1343.53 399.589C1343.53 382.479 1357.38 368.608 1374.48 368.608C1391.57 368.608 1405.43 382.479 1405.43 399.589ZM1453.61 430.571C1470.7 430.571 1484.56 416.7 1484.56 399.589C1484.56 382.479 1470.7 368.608 1453.61 368.608C1436.52 368.608 1422.66 382.479 1422.66 399.589C1422.66 416.7 1436.52 430.571 1453.61 430.571ZM1563.7 399.589C1563.7 416.7 1549.84 430.571 1532.75 430.571C1515.65 430.571 1501.8 416.7 1501.8 399.589C1501.8 382.479 1515.65 368.608 1532.75 368.608C1549.84 368.608 1563.7 382.479 1563.7 399.589ZM1611.88 430.571C1628.97 430.571 1642.83 416.7 1642.83 399.589C1642.83 382.479 1628.97 368.608 1611.88 368.608C1594.79 368.608 1580.93 382.479 1580.93 399.589C1580.93 416.7 1594.79 430.571 1611.88 430.571ZM1721.96 399.589C1721.96 416.7 1708.11 430.571 1691.01 430.571C1673.92 430.571 1660.06 416.7 1660.06 399.589C1660.06 382.479 1673.92 368.608 1691.01 368.608C1708.11 368.608 1721.96 382.479 1721.96 399.589ZM1770.15 421.768C1782.39 421.768 1792.31 411.838 1792.31 399.588C1792.31 387.338 1782.39 377.408 1770.15 377.408C1757.91 377.408 1747.99 387.338 1747.99 399.588C1747.99 411.838 1757.91 421.768 1770.15 421.768ZM54.6469 478.802C54.6469 492.874 43.2504 504.282 29.192 504.282C15.1337 504.282 3.73711 492.874 3.73711 478.802C3.73711 464.729 15.1337 453.321 29.192 453.321C43.2504 453.321 54.6469 464.729 54.6469 478.802ZM108.326 515.064C128.333 515.064 144.552 498.829 144.552 478.802C144.552 458.774 128.333 442.539 108.326 442.539C88.3191 442.539 72.1002 458.774 72.1002 478.802C72.1002 498.829 88.3191 515.064 108.326 515.064ZM223.686 478.802C223.686 498.829 207.467 515.064 187.46 515.064C167.453 515.064 151.234 498.829 151.234 478.802C151.234 458.774 167.453 442.539 187.46 442.539C207.467 442.539 223.686 458.774 223.686 478.802ZM266.595 515.064C286.602 515.064 302.821 498.829 302.821 478.802C302.821 458.774 286.602 442.539 266.595 442.539C246.588 442.539 230.369 458.774 230.369 478.802C230.369 498.829 246.588 515.064 266.595 515.064ZM381.955 478.802C381.955 498.829 365.736 515.064 345.729 515.064C325.722 515.064 309.503 498.829 309.503 478.802C309.503 458.774 325.722 442.539 345.729 442.539C365.736 442.539 381.955 458.774 381.955 478.802ZM424.863 515.064C444.871 515.064 461.089 498.829 461.089 478.802C461.089 458.774 444.871 442.539 424.863 442.539C404.856 442.539 388.637 458.774 388.637 478.802C388.637 498.829 404.856 515.064 424.863 515.064ZM540.223 478.802C540.223 498.829 524.005 515.064 503.998 515.064C483.99 515.064 467.772 498.829 467.772 478.802C467.772 458.774 483.99 442.539 503.998 442.539C524.005 442.539 540.223 458.774 540.223 478.802ZM583.132 515.064C603.139 515.064 619.358 498.829 619.358 478.802C619.358 458.774 603.139 442.539 583.132 442.539C563.125 442.539 546.906 458.774 546.906 478.802C546.906 498.829 563.125 515.064 583.132 515.064ZM662.267 515.064C682.274 515.064 698.493 498.829 698.493 478.802C698.493 458.774 682.274 442.539 662.267 442.539C642.26 442.539 626.041 458.774 626.041 478.802C626.041 498.829 642.26 515.064 662.267 515.064ZM777.628 478.802C777.628 498.829 761.409 515.064 741.402 515.064C721.395 515.064 705.176 498.829 705.176 478.802C705.176 458.774 721.395 442.539 741.402 442.539C761.409 442.539 777.628 458.774 777.628 478.802ZM820.536 515.064C840.543 515.064 856.762 498.829 856.762 478.802C856.762 458.774 840.543 442.539 820.536 442.539C800.529 442.539 784.31 458.774 784.31 478.802C784.31 498.829 800.529 515.064 820.536 515.064ZM935.896 478.802C935.896 498.829 919.678 515.064 899.671 515.064C879.664 515.064 863.445 498.829 863.445 478.802C863.445 458.774 879.664 442.539 899.671 442.539C919.678 442.539 935.896 458.774 935.896 478.802ZM978.805 515.064C998.812 515.064 1015.03 498.829 1015.03 478.802C1015.03 458.774 998.812 442.539 978.805 442.539C958.798 442.539 942.579 458.774 942.579 478.802C942.579 498.829 958.798 515.064 978.805 515.064ZM1094.17 478.802C1094.17 498.829 1077.95 515.064 1057.94 515.064C1037.93 515.064 1021.71 498.829 1021.71 478.802C1021.71 458.774 1037.93 442.539 1057.94 442.539C1077.95 442.539 1094.17 458.774 1094.17 478.802ZM1137.07 515.064C1157.08 515.064 1173.3 498.829 1173.3 478.802C1173.3 458.774 1157.08 442.539 1137.07 442.539C1117.07 442.539 1100.85 458.774 1100.85 478.802C1100.85 498.829 1117.07 515.064 1137.07 515.064ZM1252.43 478.802C1252.43 498.829 1236.21 515.064 1216.21 515.064C1196.2 515.064 1179.98 498.829 1179.98 478.802C1179.98 458.774 1196.2 442.539 1216.21 442.539C1236.21 442.539 1252.43 458.774 1252.43 478.802ZM1295.34 515.064C1315.35 515.064 1331.57 498.829 1331.57 478.802C1331.57 458.774 1315.35 442.539 1295.34 442.539C1275.33 442.539 1259.12 458.774 1259.12 478.802C1259.12 498.829 1275.33 515.064 1295.34 515.064ZM1410.7 478.802C1410.7 498.829 1394.48 515.064 1374.48 515.064C1354.47 515.064 1338.25 498.829 1338.25 478.802C1338.25 458.774 1354.47 442.539 1374.48 442.539C1394.48 442.539 1410.7 458.774 1410.7 478.802ZM1453.61 515.064C1473.62 515.064 1489.84 498.829 1489.84 478.802C1489.84 458.774 1473.62 442.539 1453.61 442.539C1433.6 442.539 1417.39 458.774 1417.39 478.802C1417.39 498.829 1433.6 515.064 1453.61 515.064ZM1568.97 478.802C1568.97 498.829 1552.75 515.064 1532.75 515.064C1512.74 515.064 1496.52 498.829 1496.52 478.802C1496.52 458.774 1512.74 442.539 1532.75 442.539C1552.75 442.539 1568.97 458.774 1568.97 478.802ZM1611.88 515.064C1631.89 515.064 1648.11 498.829 1648.11 478.802C1648.11 458.774 1631.89 442.539 1611.88 442.539C1591.87 442.539 1575.65 458.774 1575.65 478.802C1575.65 498.829 1591.87 515.064 1611.88 515.064ZM1727.24 478.802C1727.24 498.829 1711.02 515.064 1691.01 515.064C1671.01 515.064 1654.79 498.829 1654.79 478.802C1654.79 458.774 1671.01 442.539 1691.01 442.539C1711.02 442.539 1727.24 458.774 1727.24 478.802ZM1770.15 504.944C1784.57 504.944 1796.26 493.241 1796.26 478.804C1796.26 464.367 1784.57 452.663 1770.15 452.663C1755.73 452.663 1744.03 464.367 1744.03 478.804C1744.03 493.241 1755.73 504.944 1770.15 504.944Z" fill="url(#paint0_radial_310_9127)"></path><path fill-rule="evenodd" clip-rule="evenodd" d="M1273.08 332.739C1281.94 319.481 1292.22 307.263 1303.73 296.307C1313.67 299.776 1320.8 309.241 1320.8 320.373C1320.8 334.445 1309.4 345.853 1295.34 345.853C1285.77 345.853 1277.43 340.561 1273.08 332.739ZM1239.34 420.175C1240.83 410.104 1243.03 400.262 1245.87 390.698C1246.71 393.514 1247.16 396.499 1247.16 399.589C1247.16 407.491 1244.2 414.702 1239.34 420.175ZM1243.11 503.09C1239.12 486.714 1237 469.604 1237 451.999C1237 451.036 1237.01 450.075 1237.02 449.116C1246.34 455.677 1252.43 466.527 1252.43 478.801C1252.43 488.144 1248.9 496.661 1243.11 503.09ZM1332.7 630.893C1299.9 608.974 1273.46 578.273 1256.76 542.151C1259.7 534.943 1264.6 528.682 1270.94 524.101C1278.04 518.964 1286.58 516.2 1295.34 516.2C1304.11 516.2 1312.65 518.964 1319.75 524.101C1326.85 529.237 1332.16 536.484 1334.91 544.812C1337.66 536.484 1342.97 529.237 1350.07 524.101C1357.17 518.964 1365.71 516.2 1374.48 516.2C1383.24 516.2 1391.78 518.964 1398.88 524.101C1405.99 529.237 1411.29 536.484 1414.04 544.812C1416.8 536.484 1422.1 529.237 1429.21 524.101C1436.31 518.964 1444.85 516.2 1453.61 516.2C1462.37 516.2 1470.91 518.964 1478.02 524.101C1485.12 529.237 1490.43 536.484 1493.18 544.812C1495.93 536.484 1501.24 529.237 1508.34 524.101C1515.44 518.964 1523.98 516.2 1532.75 516.2C1541.51 516.2 1550.05 518.964 1557.15 524.101C1564.26 529.237 1569.56 536.484 1572.31 544.812C1575.07 536.484 1580.37 529.237 1587.47 524.101C1594.58 518.964 1603.12 516.2 1611.88 516.2C1620.64 516.2 1629.18 518.964 1636.29 524.101C1641.57 527.918 1645.85 532.901 1648.83 538.627C1638.87 561.244 1625.11 581.817 1608.38 599.546C1600.4 598.842 1592.79 595.85 1586.46 590.922C1579.95 585.854 1575.09 578.965 1572.49 571.128C1569.89 578.965 1565.03 585.854 1558.52 590.922C1552.01 595.991 1544.14 599.011 1535.91 599.601C1545.63 600.374 1554.66 604.881 1561.13 612.177C1566.01 617.676 1569.14 624.437 1570.22 631.607C1550.07 644.895 1527.56 654.884 1503.45 660.805C1498.46 654.548 1495.55 646.825 1495.23 638.738C1494.84 628.991 1498.24 619.473 1504.71 612.177C1511.18 604.881 1520.22 600.374 1529.93 599.601C1521.71 599.011 1513.84 595.991 1507.33 590.922C1500.82 585.854 1495.95 578.965 1493.35 571.128C1490.76 578.965 1485.89 585.854 1479.38 590.922C1472.87 595.991 1465 599.011 1456.78 599.601C1466.49 600.374 1475.53 604.881 1482 612.177C1488.47 619.473 1491.87 628.991 1491.48 638.738C1491.09 648.486 1486.95 657.705 1479.93 664.465C1479.62 664.755 1479.32 665.04 1479.01 665.319C1470.16 666.428 1461.15 666.999 1452 666.999C1444.27 666.999 1436.63 666.591 1429.11 665.794C1428.61 665.365 1428.12 664.922 1427.65 664.465C1420.62 657.705 1416.48 648.486 1416.1 638.738C1415.71 628.991 1419.11 619.473 1425.58 612.177C1432.04 604.881 1441.08 600.374 1450.8 599.601C1442.57 599.011 1434.7 595.991 1428.19 590.922C1421.68 585.854 1416.82 578.965 1414.22 571.128C1411.62 578.965 1406.76 585.854 1400.25 590.922C1393.74 595.991 1385.87 599.011 1377.64 599.601C1387.36 600.374 1396.4 604.881 1402.86 612.177C1409.33 619.473 1412.73 628.991 1412.34 638.738C1412.01 647.134 1408.89 655.139 1403.54 661.517C1379.62 656.006 1357.23 646.505 1337.09 633.75C1337.83 625.789 1341.08 618.22 1346.44 612.177C1352.91 604.881 1361.95 600.374 1371.66 599.601C1363.44 599.011 1355.57 595.991 1349.06 590.922C1342.55 585.854 1337.68 578.965 1335.09 571.128C1332.49 578.965 1327.63 585.854 1321.11 590.922C1314.6 595.991 1306.74 599.011 1298.51 599.601C1308.22 600.374 1317.26 604.881 1323.73 612.177C1328.44 617.492 1331.53 623.988 1332.7 630.893ZM1575.48 628.029C1587.34 619.691 1598.32 610.184 1608.26 599.674C1598.85 600.627 1590.13 605.083 1583.84 612.177C1579.79 616.751 1576.94 622.199 1575.48 628.029ZM1667 451.651C1667 451.767 1667 451.883 1667 451.999C1667 468.5 1665.14 484.567 1661.62 500.001C1657.32 494.039 1654.79 486.716 1654.79 478.801C1654.79 467.996 1659.51 458.295 1667 451.651ZM1660.11 397.815C1661.51 403.172 1662.69 408.611 1663.67 414.122C1661.37 409.788 1660.06 404.841 1660.06 399.589C1660.06 398.993 1660.08 398.402 1660.11 397.815ZM1601.23 297.224C1613.06 308.632 1623.59 321.384 1632.56 335.234C1627.94 341.665 1620.4 345.853 1611.88 345.853C1597.82 345.853 1586.43 334.445 1586.43 320.373C1586.43 310.107 1592.49 301.259 1601.23 297.224ZM1513.1 245.806C1523.87 248.99 1534.28 252.995 1544.27 257.747C1541 260.025 1537.03 261.36 1532.75 261.36C1523.2 261.36 1515.2 254.723 1513.1 245.806ZM1433.72 237.766C1439.74 237.258 1445.84 236.999 1452 236.999C1459.27 236.999 1466.47 237.36 1473.55 238.066C1473.71 239.075 1473.79 240.108 1473.79 241.161C1473.79 252.317 1464.76 261.36 1453.61 261.36C1442.47 261.36 1433.43 252.317 1433.43 241.161C1433.43 240.004 1433.53 238.869 1433.72 237.766ZM1394.33 244.823C1392.6 254.23 1384.37 261.36 1374.48 261.36C1369.64 261.36 1365.2 259.656 1361.72 256.814C1372.16 251.977 1383.06 247.952 1394.33 244.823ZM1399.93 320.373C1399.93 334.445 1388.54 345.853 1374.48 345.853C1360.42 345.853 1349.02 334.445 1349.02 320.373C1349.02 306.301 1360.42 294.893 1374.48 294.893C1388.54 294.893 1399.93 306.301 1399.93 320.373ZM1453.61 345.853C1467.67 345.853 1479.07 334.445 1479.07 320.373C1479.07 306.301 1467.67 294.893 1453.61 294.893C1439.55 294.893 1428.16 306.301 1428.16 320.373C1428.16 334.445 1439.55 345.853 1453.61 345.853ZM1558.2 320.373C1558.2 334.445 1546.8 345.853 1532.75 345.853C1518.69 345.853 1507.29 334.445 1507.29 320.373C1507.29 306.301 1518.69 294.893 1532.75 294.893C1546.8 294.893 1558.2 306.301 1558.2 320.373ZM1295.34 430.57C1312.44 430.57 1326.29 416.699 1326.29 399.589C1326.29 382.478 1312.44 368.607 1295.34 368.607C1278.25 368.607 1264.39 382.478 1264.39 399.589C1264.39 416.699 1278.25 430.57 1295.34 430.57ZM1405.43 399.589C1405.43 416.699 1391.57 430.57 1374.48 430.57C1357.38 430.57 1343.53 416.699 1343.53 399.589C1343.53 382.478 1357.38 368.607 1374.48 368.607C1391.57 368.607 1405.43 382.478 1405.43 399.589ZM1453.61 430.57C1470.7 430.57 1484.56 416.699 1484.56 399.589C1484.56 382.478 1470.7 368.607 1453.61 368.607C1436.52 368.607 1422.66 382.478 1422.66 399.589C1422.66 416.699 1436.52 430.57 1453.61 430.57ZM1563.7 399.589C1563.7 416.699 1549.84 430.57 1532.75 430.57C1515.65 430.57 1501.8 416.699 1501.8 399.589C1501.8 382.478 1515.65 368.607 1532.75 368.607C1549.84 368.607 1563.7 382.478 1563.7 399.589ZM1611.88 430.57C1628.97 430.57 1642.83 416.699 1642.83 399.589C1642.83 382.478 1628.97 368.607 1611.88 368.607C1594.79 368.607 1580.93 382.478 1580.93 399.589C1580.93 416.699 1594.79 430.57 1611.88 430.57ZM1295.34 515.063C1315.35 515.063 1331.57 498.828 1331.57 478.801C1331.57 458.774 1315.35 442.539 1295.34 442.539C1275.34 442.539 1259.12 458.774 1259.12 478.801C1259.12 498.828 1275.34 515.063 1295.34 515.063ZM1410.7 478.801C1410.7 498.828 1394.48 515.063 1374.48 515.063C1354.47 515.063 1338.25 498.828 1338.25 478.801C1338.25 458.774 1354.47 442.539 1374.48 442.539C1394.48 442.539 1410.7 458.774 1410.7 478.801ZM1453.61 515.063C1473.62 515.063 1489.84 498.828 1489.84 478.801C1489.84 458.774 1473.62 442.539 1453.61 442.539C1433.6 442.539 1417.39 458.774 1417.39 478.801C1417.39 498.828 1433.6 515.063 1453.61 515.063ZM1568.97 478.801C1568.97 498.828 1552.75 515.063 1532.75 515.063C1512.74 515.063 1496.52 498.828 1496.52 478.801C1496.52 458.774 1512.74 442.539 1532.75 442.539C1552.75 442.539 1568.97 458.774 1568.97 478.801ZM1611.88 515.063C1631.89 515.063 1648.11 498.828 1648.11 478.801C1648.11 458.774 1631.89 442.539 1611.88 442.539C1591.87 442.539 1575.65 458.774 1575.65 478.801C1575.65 498.828 1591.87 515.063 1611.88 515.063Z" fill="url(#paint1_linear_310_9127)"></path></g><defs><radialGradient id="paint0_radial_310_9127" cx="0" cy="0" r="1" gradientUnits="userSpaceOnUse" gradientTransform="translate(93 606) rotate(-20.4815) scale(1394.66 3797.87)"><stop stop-color="#0E2F2E"></stop><stop offset="0.494792" stop-color="#132F3D"></stop><stop offset="1" stop-color="#1B2630"></stop></radialGradient><linearGradient id="paint1_linear_310_9127" x1="1452" y1="236.999" x2="1452" y2="666.999" gradientUnits="userSpaceOnUse"><stop stop-color="#E8643D"></stop><stop offset="1" stop-color="#DE4B51"></stop></linearGradient><clipPath id="clip0_310_9127"><rect width="1800" height="680" fill="white"></rect></clipPath></defs></svg> 